<?xml version="1.0" standalone="no"?>
<svg xmlns="http://www.w3.org/2000/svg" viewBox="0 0 37.264 43.029" width="37.264" height="43.029"><polygon fill="none" stroke="#ead017" stroke-width="3" points="35.764,11.50725 35.764,31.521750000000004 18.632,41.529 1.5,31.521750000000004 1.5,11.50725 18.632,1.5"></polygon><path fill="#000000" fill-rule="nonzero" d="M10.79 1.48Q12.26 2.95 12.26 5.81Q12.26 8.66 10.79 10.14Q9.31 11.62 6.62 11.62L6.62 11.62L3.34 11.62L3.34 17.09L0 17.09L0 0L6.62 0Q9.31 0 10.79 1.48ZM8.93 5.81L8.93 5.81Q8.93 2.98 6.46 2.98L6.46 2.98L3.34 2.98L3.34 8.62L6.46 8.62Q7.66 8.62 8.29 7.97Q8.93 7.32 8.93 5.81Z" transform="translate(12.501, 12.971)"></path></svg>